<mxfile host="65bd71144e" modified="2021-01-16T10:07:07.123Z" agent="5.0 (Macintosh; Intel Mac OS X 10_15_6) AppleWebKit/537.36 (KHTML, like Gecko) Code/1.52.1 Chrome/83.0.4103.122 Electron/9.3.5 Safari/537.36" etag="c2YTBGh7TOIdoJ3zF9TD" version="13.10.0" type="embed">
    <diagram id="0z5UEFdRika0dufb6hO-" name="Page-1">
        <mxGraphModel dx="999" dy="772" grid="0" gridSize="10" guides="1" tooltips="1" connect="1" arrows="1" fold="1" page="1" pageScale="1" pageWidth="827" pageHeight="1169" math="0" shadow="1">
            <root>
                <mxCell id="0"/>
                <mxCell id="1" parent="0"/>
                <mxCell id="6" value="" style="rounded=0;whiteSpace=wrap;html=1;dashed=1;strokeColor=#3333FF;" parent="1" vertex="1">
                    <mxGeometry x="140" y="30" width="870" height="950" as="geometry"/>
                </mxCell>
                <mxCell id="4" value="" style="rounded=0;whiteSpace=wrap;html=1;dashed=1;strokeColor=#CC0000;" parent="1" vertex="1">
                    <mxGeometry x="164" y="60" width="377" height="429" as="geometry"/>
                </mxCell>
                <mxCell id="53" value="" style="rounded=0;whiteSpace=wrap;html=1;strokeColor=#B266FF;dashed=1;" parent="1" vertex="1">
                    <mxGeometry x="408.13" y="90" width="71.87" height="380" as="geometry"/>
                </mxCell>
                <mxCell id="63" value="" style="group" parent="1" vertex="1" connectable="0">
                    <mxGeometry x="580" y="90" width="121.63" height="386" as="geometry"/>
                </mxCell>
                <mxCell id="56" value="" style="rounded=0;whiteSpace=wrap;html=1;dashed=1;strokeColor=#FFFF66;" parent="63" vertex="1">
                    <mxGeometry y="-10" width="120" height="290" as="geometry"/>
                </mxCell>
                <mxCell id="57" value="TESCO API" style="text;html=1;strokeColor=none;fillColor=none;align=center;verticalAlign=middle;whiteSpace=wrap;rounded=0;dashed=1;" parent="63" vertex="1">
                    <mxGeometry y="-10" width="120" height="30" as="geometry"/>
                </mxCell>
                <mxCell id="69" value="Colleage API" style="whiteSpace=wrap;html=1;rounded=0;strokeColor=#FFFFFF;direction=south;horizontal=1;verticalAlign=middle;" parent="63" vertex="1">
                    <mxGeometry x="20" y="70" width="83.25" height="40" as="geometry"/>
                </mxCell>
                <mxCell id="71" value="CMS API" style="whiteSpace=wrap;html=1;rounded=0;strokeColor=#FFFFFF;direction=south;horizontal=1;verticalAlign=middle;" parent="63" vertex="1">
                    <mxGeometry x="20" y="130" width="83.25" height="40" as="geometry"/>
                </mxCell>
                <mxCell id="73" value="Contact API" style="whiteSpace=wrap;html=1;rounded=0;strokeColor=#FFFFFF;direction=south;horizontal=1;verticalAlign=middle;" parent="63" vertex="1">
                    <mxGeometry x="20" y="180" width="83.25" height="40" as="geometry"/>
                </mxCell>
                <mxCell id="75" value="Logging API" style="whiteSpace=wrap;html=1;rounded=0;strokeColor=#FFFFFF;direction=south;horizontal=1;verticalAlign=middle;" parent="63" vertex="1">
                    <mxGeometry x="20" y="230" width="83.25" height="40" as="geometry"/>
                </mxCell>
                <mxCell id="131" value="&lt;span&gt;3rd party API&lt;br&gt;Yammer, &lt;br&gt;Confirmit, etc.&lt;br&gt;&lt;/span&gt;" style="ellipse;shape=cloud;whiteSpace=wrap;html=1;strokeColor=#FFFFFF;" parent="63" vertex="1">
                    <mxGeometry x="1.63" y="284" width="120" height="96" as="geometry"/>
                </mxCell>
                <mxCell id="2" value="&lt;span&gt;request&lt;/span&gt;&lt;br&gt;&lt;span&gt;domain/dn'i&lt;/span&gt;" style="rounded=0;whiteSpace=wrap;html=1;" parent="1" vertex="1">
                    <mxGeometry x="40" y="232.5" width="90" height="40" as="geometry"/>
                </mxCell>
                <mxCell id="5" value="Server" style="text;html=1;strokeColor=none;fillColor=none;align=center;verticalAlign=middle;whiteSpace=wrap;rounded=0;dashed=1;" parent="1" vertex="1">
                    <mxGeometry x="312" y="60" width="40" height="25" as="geometry"/>
                </mxCell>
                <mxCell id="7" value="DN'I monorepo (packages)" style="text;html=1;strokeColor=none;fillColor=none;align=center;verticalAlign=middle;whiteSpace=wrap;rounded=0;dashed=1;" parent="1" vertex="1">
                    <mxGeometry x="510" y="30" width="188" height="30" as="geometry"/>
                </mxCell>
                <mxCell id="22" value="" style="edgeStyle=orthogonalEdgeStyle;rounded=0;orthogonalLoop=1;jettySize=auto;html=1;entryX=0.5;entryY=1;entryDx=0;entryDy=0;" parent="1" source="13" target="21" edge="1">
                    <mxGeometry relative="1" as="geometry">
                        <Array as="points">
                            <mxPoint x="206" y="125"/>
                        </Array>
                    </mxGeometry>
                </mxCell>
                <mxCell id="13" value="Router" style="rounded=0;whiteSpace=wrap;html=1;strokeColor=#FFFFFF;horizontal=0;" parent="1" vertex="1">
                    <mxGeometry x="176" y="95" width="30" height="315" as="geometry"/>
                </mxCell>
                <mxCell id="19" value="" style="group" parent="1" vertex="1" connectable="0">
                    <mxGeometry x="280" y="100" width="128.13" height="370" as="geometry"/>
                </mxCell>
                <mxCell id="10" value="" style="rounded=0;whiteSpace=wrap;html=1;dashed=1;strokeColor=#00CC00;align=center;" parent="19" vertex="1">
                    <mxGeometry x="-0.01" y="-10" width="120" height="380" as="geometry"/>
                </mxCell>
                <mxCell id="18" value="services" style="text;html=1;strokeColor=none;fillColor=none;align=center;verticalAlign=middle;whiteSpace=wrap;rounded=0;dashed=1;" parent="19" vertex="1">
                    <mxGeometry x="30" y="-10" width="60" height="20" as="geometry"/>
                </mxCell>
                <mxCell id="26" value="colleage" style="rounded=0;whiteSpace=wrap;html=1;strokeColor=#FFFFFF;" parent="19" vertex="1">
                    <mxGeometry x="18.120000000000005" y="70" width="83.75" height="30" as="geometry"/>
                </mxCell>
                <mxCell id="27" value="networks" style="rounded=0;whiteSpace=wrap;html=1;strokeColor=#FFFFFF;" parent="19" vertex="1">
                    <mxGeometry x="18.120000000000005" y="120" width="83.75" height="30" as="geometry"/>
                </mxCell>
                <mxCell id="28" value="contacts" style="rounded=0;whiteSpace=wrap;html=1;strokeColor=#FFFFFF;" parent="19" vertex="1">
                    <mxGeometry x="18.120000000000005" y="170" width="83.75" height="30" as="geometry"/>
                </mxCell>
                <mxCell id="29" value="logging" style="rounded=0;whiteSpace=wrap;html=1;strokeColor=#FFFFFF;" parent="19" vertex="1">
                    <mxGeometry x="18.120000000000005" y="220" width="83.75" height="30" as="geometry"/>
                </mxCell>
                <mxCell id="30" value="surveys" style="rounded=0;whiteSpace=wrap;html=1;strokeColor=#FFFFFF;" parent="19" vertex="1">
                    <mxGeometry x="18.120000000000005" y="270" width="83.75" height="30" as="geometry"/>
                </mxCell>
                <mxCell id="32" value="posts" style="rounded=0;whiteSpace=wrap;html=1;strokeColor=#FFFFFF;" parent="19" vertex="1">
                    <mxGeometry x="18.120000000000005" y="320" width="83.75" height="30" as="geometry"/>
                </mxCell>
                <mxCell id="55" value="auth&amp;amp;identity" style="rounded=0;whiteSpace=wrap;html=1;strokeColor=#FFFFFF;" parent="19" vertex="1">
                    <mxGeometry x="18.120000000000005" y="20" width="83.75" height="30" as="geometry"/>
                </mxCell>
                <mxCell id="84" style="edgeStyle=orthogonalEdgeStyle;rounded=0;orthogonalLoop=1;jettySize=auto;html=1;entryX=0.002;entryY=0.091;entryDx=0;entryDy=0;entryPerimeter=0;" parent="1" source="21" target="10" edge="1">
                    <mxGeometry relative="1" as="geometry">
                        <Array as="points">
                            <mxPoint x="270" y="125"/>
                            <mxPoint x="280" y="125"/>
                        </Array>
                    </mxGeometry>
                </mxCell>
                <mxCell id="21" value="/api" style="whiteSpace=wrap;html=1;rounded=0;strokeColor=#FFFFFF;direction=south;horizontal=0;" parent="1" vertex="1">
                    <mxGeometry x="229" y="101" width="24.25" height="49" as="geometry"/>
                </mxCell>
                <mxCell id="33" value="" style="edgeStyle=orthogonalEdgeStyle;rounded=0;orthogonalLoop=1;jettySize=auto;html=1;" parent="1" source="2" target="13" edge="1">
                    <mxGeometry relative="1" as="geometry"/>
                </mxCell>
                <mxCell id="39" value="" style="edgeStyle=orthogonalEdgeStyle;rounded=0;orthogonalLoop=1;jettySize=auto;html=1;" parent="1" target="40" edge="1">
                    <mxGeometry relative="1" as="geometry">
                        <mxPoint x="381.8800000000001" y="235.0344827586207" as="sourcePoint"/>
                    </mxGeometry>
                </mxCell>
                <mxCell id="40" value="con." style="whiteSpace=wrap;html=1;rounded=0;strokeColor=#FFFFFF;direction=south;horizontal=0;" parent="1" vertex="1">
                    <mxGeometry x="431.38" y="215" width="26.25" height="40" as="geometry"/>
                </mxCell>
                <mxCell id="43" value="" style="edgeStyle=orthogonalEdgeStyle;rounded=0;orthogonalLoop=1;jettySize=auto;html=1;" parent="1" target="44" edge="1">
                    <mxGeometry relative="1" as="geometry">
                        <mxPoint x="381.0000000000002" y="130.0344827586207" as="sourcePoint"/>
                    </mxGeometry>
                </mxCell>
                <mxCell id="44" value="con." style="whiteSpace=wrap;html=1;rounded=0;strokeColor=#FFFFFF;direction=south;horizontal=0;" parent="1" vertex="1">
                    <mxGeometry x="430.5" y="110" width="26.25" height="40" as="geometry"/>
                </mxCell>
                <mxCell id="45" value="" style="edgeStyle=orthogonalEdgeStyle;rounded=0;orthogonalLoop=1;jettySize=auto;html=1;" parent="1" target="46" edge="1">
                    <mxGeometry relative="1" as="geometry">
                        <mxPoint x="381.0000000000002" y="285.0344827586207" as="sourcePoint"/>
                    </mxGeometry>
                </mxCell>
                <mxCell id="46" value="con." style="whiteSpace=wrap;html=1;rounded=0;strokeColor=#FFFFFF;direction=south;horizontal=0;" parent="1" vertex="1">
                    <mxGeometry x="430.5" y="265" width="26.25" height="40" as="geometry"/>
                </mxCell>
                <mxCell id="51" value="" style="edgeStyle=orthogonalEdgeStyle;rounded=0;orthogonalLoop=1;jettySize=auto;html=1;" parent="1" target="52" edge="1">
                    <mxGeometry relative="1" as="geometry">
                        <mxPoint x="381.8800000000002" y="440.0344827586207" as="sourcePoint"/>
                    </mxGeometry>
                </mxCell>
                <mxCell id="80" value="" style="edgeStyle=orthogonalEdgeStyle;rounded=0;orthogonalLoop=1;jettySize=auto;html=1;" parent="1" source="52" edge="1">
                    <mxGeometry relative="1" as="geometry">
                        <Array as="points">
                            <mxPoint x="490" y="440"/>
                            <mxPoint x="490" y="413"/>
                            <mxPoint x="589" y="413"/>
                        </Array>
                        <mxPoint x="589" y="413" as="targetPoint"/>
                    </mxGeometry>
                </mxCell>
                <mxCell id="52" value="con." style="whiteSpace=wrap;html=1;rounded=0;strokeColor=#FFFFFF;direction=south;horizontal=0;" parent="1" vertex="1">
                    <mxGeometry x="431.38" y="420" width="26.25" height="40" as="geometry"/>
                </mxCell>
                <mxCell id="41" value="" style="edgeStyle=orthogonalEdgeStyle;rounded=0;orthogonalLoop=1;jettySize=auto;html=1;" parent="1" target="42" edge="1">
                    <mxGeometry relative="1" as="geometry">
                        <mxPoint x="381.0000000000001" y="185.0344827586207" as="sourcePoint"/>
                    </mxGeometry>
                </mxCell>
                <mxCell id="42" value="con." style="whiteSpace=wrap;html=1;rounded=0;strokeColor=#FFFFFF;direction=south;horizontal=0;" parent="1" vertex="1">
                    <mxGeometry x="430.5" y="165" width="26.25" height="40" as="geometry"/>
                </mxCell>
                <mxCell id="49" value="" style="edgeStyle=orthogonalEdgeStyle;rounded=0;orthogonalLoop=1;jettySize=auto;html=1;" parent="1" target="50" edge="1">
                    <mxGeometry relative="1" as="geometry">
                        <mxPoint x="381.0000000000002" y="385.0344827586207" as="sourcePoint"/>
                    </mxGeometry>
                </mxCell>
                <mxCell id="79" value="" style="edgeStyle=orthogonalEdgeStyle;rounded=0;orthogonalLoop=1;jettySize=auto;html=1;" parent="1" source="50" edge="1">
                    <mxGeometry relative="1" as="geometry">
                        <Array as="points">
                            <mxPoint x="490" y="385"/>
                            <mxPoint x="490" y="413"/>
                            <mxPoint x="589" y="413"/>
                        </Array>
                        <mxPoint x="589" y="413" as="targetPoint"/>
                    </mxGeometry>
                </mxCell>
                <mxCell id="50" value="con." style="whiteSpace=wrap;html=1;rounded=0;strokeColor=#FFFFFF;direction=south;horizontal=0;" parent="1" vertex="1">
                    <mxGeometry x="430.5" y="365" width="26.25" height="40" as="geometry"/>
                </mxCell>
                <mxCell id="47" value="" style="edgeStyle=orthogonalEdgeStyle;rounded=0;orthogonalLoop=1;jettySize=auto;html=1;" parent="1" target="48" edge="1">
                    <mxGeometry relative="1" as="geometry">
                        <mxPoint x="381.87000000000023" y="335.0344827586207" as="sourcePoint"/>
                    </mxGeometry>
                </mxCell>
                <mxCell id="48" value="con." style="whiteSpace=wrap;html=1;rounded=0;strokeColor=#FFFFFF;direction=south;horizontal=0;" parent="1" vertex="1">
                    <mxGeometry x="431.37" y="315" width="26.25" height="40" as="geometry"/>
                </mxCell>
                <mxCell id="54" value="connectors" style="text;html=1;strokeColor=none;fillColor=none;align=center;verticalAlign=middle;whiteSpace=wrap;rounded=0;dashed=1;" parent="1" vertex="1">
                    <mxGeometry x="408.62" y="90" width="70" height="20" as="geometry"/>
                </mxCell>
                <mxCell id="61" value="Identity API" style="whiteSpace=wrap;html=1;rounded=0;strokeColor=#FFFFFF;direction=south;horizontal=1;verticalAlign=middle;" parent="1" vertex="1">
                    <mxGeometry x="600" y="110" width="83.25" height="40" as="geometry"/>
                </mxCell>
                <mxCell id="62" value="" style="edgeStyle=orthogonalEdgeStyle;rounded=0;orthogonalLoop=1;jettySize=auto;html=1;" parent="1" source="44" target="61" edge="1">
                    <mxGeometry relative="1" as="geometry"/>
                </mxCell>
                <mxCell id="85" value="" style="rounded=0;whiteSpace=wrap;html=1;dashed=1;strokeColor=#4D9900;" parent="1" vertex="1">
                    <mxGeometry x="164" y="519" width="376" height="340" as="geometry"/>
                </mxCell>
                <mxCell id="86" value="Client" style="text;html=1;strokeColor=none;fillColor=none;align=center;verticalAlign=middle;whiteSpace=wrap;rounded=0;dashed=1;" parent="1" vertex="1">
                    <mxGeometry x="332" y="519" width="40" height="20" as="geometry"/>
                </mxCell>
                <mxCell id="90" value="" style="edgeStyle=orthogonalEdgeStyle;rounded=0;orthogonalLoop=1;jettySize=auto;html=1;entryX=0.204;entryY=-0.002;entryDx=0;entryDy=0;entryPerimeter=0;" parent="1" source="87" target="85" edge="1">
                    <mxGeometry relative="1" as="geometry">
                        <mxPoint x="241" y="510" as="targetPoint"/>
                        <Array as="points"/>
                    </mxGeometry>
                </mxCell>
                <mxCell id="87" value="/index" style="whiteSpace=wrap;html=1;rounded=0;strokeColor=#FFFFFF;direction=south;horizontal=0;" parent="1" vertex="1">
                    <mxGeometry x="228.76" y="365" width="24.25" height="49" as="geometry"/>
                </mxCell>
                <mxCell id="88" value="" style="edgeStyle=orthogonalEdgeStyle;rounded=0;orthogonalLoop=1;jettySize=auto;html=1;entryX=0.5;entryY=1;entryDx=0;entryDy=0;" parent="1" target="87" edge="1">
                    <mxGeometry relative="1" as="geometry">
                        <mxPoint x="205.76" y="389.4857142857143" as="sourcePoint"/>
                        <Array as="points">
                            <mxPoint x="205.76" y="389"/>
                        </Array>
                    </mxGeometry>
                </mxCell>
                <mxCell id="91" value="Router" style="rounded=0;whiteSpace=wrap;html=1;strokeColor=#FFFFFF;horizontal=0;" parent="1" vertex="1">
                    <mxGeometry x="176" y="539" width="30" height="307.5" as="geometry"/>
                </mxCell>
                <mxCell id="92" value="" style="rounded=0;whiteSpace=wrap;html=1;dashed=1;strokeColor=#9999FF;" parent="1" vertex="1">
                    <mxGeometry x="220" y="539" width="120" height="310" as="geometry"/>
                </mxCell>
                <mxCell id="93" value="Pages" style="text;html=1;strokeColor=none;fillColor=none;align=center;verticalAlign=middle;whiteSpace=wrap;rounded=0;dashed=1;" parent="1" vertex="1">
                    <mxGeometry x="260" y="539" width="40" height="20" as="geometry"/>
                </mxCell>
                <mxCell id="137" style="edgeStyle=orthogonalEdgeStyle;rounded=0;orthogonalLoop=1;jettySize=auto;html=1;entryX=-0.001;entryY=0.519;entryDx=0;entryDy=0;entryPerimeter=0;" parent="1" target="94" edge="1">
                    <mxGeometry relative="1" as="geometry">
                        <mxPoint x="206" y="577" as="sourcePoint"/>
                        <Array as="points">
                            <mxPoint x="206" y="577"/>
                        </Array>
                    </mxGeometry>
                </mxCell>
                <mxCell id="94" value="home" style="rounded=0;whiteSpace=wrap;html=1;strokeColor=#FFFFFF;" parent="1" vertex="1">
                    <mxGeometry x="235" y="564" width="90" height="25" as="geometry"/>
                </mxCell>
                <mxCell id="95" value="feeds" style="rounded=0;whiteSpace=wrap;html=1;strokeColor=#FFFFFF;" parent="1" vertex="1">
                    <mxGeometry x="235" y="605" width="90" height="25" as="geometry"/>
                </mxCell>
                <mxCell id="99" value="networks" style="rounded=0;whiteSpace=wrap;html=1;strokeColor=#FFFFFF;" parent="1" vertex="1">
                    <mxGeometry x="235" y="689" width="90" height="25" as="geometry"/>
                </mxCell>
                <mxCell id="100" value="events" style="rounded=0;whiteSpace=wrap;html=1;strokeColor=#FFFFFF;" parent="1" vertex="1">
                    <mxGeometry x="235" y="649" width="90" height="25" as="geometry"/>
                </mxCell>
                <mxCell id="102" value="surveys" style="rounded=0;whiteSpace=wrap;html=1;strokeColor=#FFFFFF;" parent="1" vertex="1">
                    <mxGeometry x="235" y="729" width="90" height="25" as="geometry"/>
                </mxCell>
                <mxCell id="103" value="reports" style="rounded=0;whiteSpace=wrap;html=1;strokeColor=#FFFFFF;" parent="1" vertex="1">
                    <mxGeometry x="235" y="769" width="90" height="25" as="geometry"/>
                </mxCell>
                <mxCell id="104" value="users" style="rounded=0;whiteSpace=wrap;html=1;strokeColor=#FFFFFF;" parent="1" vertex="1">
                    <mxGeometry x="235" y="809" width="90" height="25" as="geometry"/>
                </mxCell>
                <mxCell id="109" value="" style="rounded=0;whiteSpace=wrap;html=1;dashed=1;strokeColor=#00FFFF;" parent="1" vertex="1">
                    <mxGeometry x="360" y="539" width="160" height="310" as="geometry"/>
                </mxCell>
                <mxCell id="110" value="Store" style="text;html=1;strokeColor=none;fillColor=none;align=center;verticalAlign=middle;whiteSpace=wrap;rounded=0;dashed=1;" parent="1" vertex="1">
                    <mxGeometry x="425" y="539" width="40" height="20" as="geometry"/>
                </mxCell>
                <mxCell id="112" value="feeds" style="rounded=0;whiteSpace=wrap;html=1;strokeColor=#FFFFFF;" parent="1" vertex="1">
                    <mxGeometry x="375" y="605" width="90" height="25" as="geometry"/>
                </mxCell>
                <mxCell id="113" value="networks" style="rounded=0;whiteSpace=wrap;html=1;strokeColor=#FFFFFF;" parent="1" vertex="1">
                    <mxGeometry x="375" y="689" width="90" height="25" as="geometry"/>
                </mxCell>
                <mxCell id="114" value="events" style="rounded=0;whiteSpace=wrap;html=1;strokeColor=#FFFFFF;" parent="1" vertex="1">
                    <mxGeometry x="375" y="649" width="90" height="25" as="geometry"/>
                </mxCell>
                <mxCell id="115" value="surveys" style="rounded=0;whiteSpace=wrap;html=1;strokeColor=#FFFFFF;" parent="1" vertex="1">
                    <mxGeometry x="375" y="729" width="90" height="25" as="geometry"/>
                </mxCell>
                <mxCell id="116" value="reports" style="rounded=0;whiteSpace=wrap;html=1;strokeColor=#FFFFFF;" parent="1" vertex="1">
                    <mxGeometry x="375" y="769" width="90" height="25" as="geometry"/>
                </mxCell>
                <mxCell id="117" value="users" style="rounded=0;whiteSpace=wrap;html=1;strokeColor=#FFFFFF;" parent="1" vertex="1">
                    <mxGeometry x="375" y="809" width="90" height="25" as="geometry"/>
                </mxCell>
                <mxCell id="68" value="" style="edgeStyle=orthogonalEdgeStyle;rounded=0;orthogonalLoop=1;jettySize=auto;html=1;exitX=0.25;exitY=0;exitDx=0;exitDy=0;" parent="1" source="42" target="69" edge="1">
                    <mxGeometry relative="1" as="geometry">
                        <mxPoint x="536.75" y="180" as="sourcePoint"/>
                        <Array as="points">
                            <mxPoint x="590" y="175"/>
                            <mxPoint x="590" y="175"/>
                        </Array>
                    </mxGeometry>
                </mxCell>
                <mxCell id="70" value="" style="edgeStyle=orthogonalEdgeStyle;rounded=0;orthogonalLoop=1;jettySize=auto;html=1;exitX=0.5;exitY=0;exitDx=0;exitDy=0;" parent="1" source="40" target="71" edge="1">
                    <mxGeometry relative="1" as="geometry">
                        <mxPoint x="536.75" y="240" as="sourcePoint"/>
                        <Array as="points">
                            <mxPoint x="580" y="235"/>
                            <mxPoint x="580" y="235"/>
                        </Array>
                    </mxGeometry>
                </mxCell>
                <mxCell id="72" value="" style="edgeStyle=orthogonalEdgeStyle;rounded=0;orthogonalLoop=1;jettySize=auto;html=1;exitX=0.5;exitY=0;exitDx=0;exitDy=0;" parent="1" source="46" target="73" edge="1">
                    <mxGeometry relative="1" as="geometry">
                        <mxPoint x="536.75" y="290" as="sourcePoint"/>
                        <Array as="points">
                            <mxPoint x="590" y="285"/>
                            <mxPoint x="590" y="285"/>
                        </Array>
                    </mxGeometry>
                </mxCell>
                <mxCell id="74" value="" style="edgeStyle=orthogonalEdgeStyle;rounded=0;orthogonalLoop=1;jettySize=auto;html=1;exitX=0.5;exitY=0;exitDx=0;exitDy=0;" parent="1" source="48" target="75" edge="1">
                    <mxGeometry relative="1" as="geometry">
                        <mxPoint x="536.75" y="340" as="sourcePoint"/>
                        <Array as="points">
                            <mxPoint x="590" y="335"/>
                            <mxPoint x="590" y="335"/>
                        </Array>
                    </mxGeometry>
                </mxCell>
                <mxCell id="118" value="Middleware" style="rounded=0;whiteSpace=wrap;html=1;strokeColor=#FF00FF;direction=south;horizontal=0;" parent="1" vertex="1">
                    <mxGeometry x="478.62" y="605" width="31.38" height="235" as="geometry"/>
                </mxCell>
                <mxCell id="111" style="edgeStyle=orthogonalEdgeStyle;rounded=0;orthogonalLoop=1;jettySize=auto;html=1;entryX=1;entryY=0.5;entryDx=0;entryDy=0;exitX=0;exitY=0.5;exitDx=0;exitDy=0;startArrow=classic;startFill=1;" parent="1" source="118" target="21" edge="1">
                    <mxGeometry relative="1" as="geometry">
                        <Array as="points">
                            <mxPoint x="494" y="505"/>
                            <mxPoint x="270" y="505"/>
                            <mxPoint x="270" y="340"/>
                            <mxPoint x="241" y="340"/>
                        </Array>
                    </mxGeometry>
                </mxCell>
                <mxCell id="239" value="&amp;nbsp;Production (dev/stage/prod)&amp;nbsp;" style="edgeLabel;html=1;align=center;verticalAlign=middle;resizable=0;points=[];" parent="111" vertex="1" connectable="0">
                    <mxGeometry x="-0.3849" y="1" relative="1" as="geometry">
                        <mxPoint x="-1.45" y="-1" as="offset"/>
                    </mxGeometry>
                </mxCell>
                <mxCell id="119" value="" style="edgeStyle=orthogonalEdgeStyle;rounded=0;orthogonalLoop=1;jettySize=auto;html=1;entryX=0;entryY=0.5;entryDx=0;entryDy=0;" parent="1" source="95" target="112" edge="1">
                    <mxGeometry relative="1" as="geometry"/>
                </mxCell>
                <mxCell id="122" value="" style="edgeStyle=orthogonalEdgeStyle;rounded=0;orthogonalLoop=1;jettySize=auto;html=1;entryX=0;entryY=0.5;entryDx=0;entryDy=0;" parent="1" source="99" target="113" edge="1">
                    <mxGeometry relative="1" as="geometry"/>
                </mxCell>
                <mxCell id="121" value="" style="edgeStyle=orthogonalEdgeStyle;rounded=0;orthogonalLoop=1;jettySize=auto;html=1;" parent="1" source="100" target="114" edge="1">
                    <mxGeometry relative="1" as="geometry"/>
                </mxCell>
                <mxCell id="123" value="" style="edgeStyle=orthogonalEdgeStyle;rounded=0;orthogonalLoop=1;jettySize=auto;html=1;entryX=0;entryY=0.5;entryDx=0;entryDy=0;" parent="1" source="102" target="115" edge="1">
                    <mxGeometry relative="1" as="geometry"/>
                </mxCell>
                <mxCell id="124" value="" style="edgeStyle=orthogonalEdgeStyle;rounded=0;orthogonalLoop=1;jettySize=auto;html=1;entryX=0;entryY=0.5;entryDx=0;entryDy=0;" parent="1" source="103" target="116" edge="1">
                    <mxGeometry relative="1" as="geometry"/>
                </mxCell>
                <mxCell id="125" value="" style="edgeStyle=orthogonalEdgeStyle;rounded=0;orthogonalLoop=1;jettySize=auto;html=1;" parent="1" source="104" target="117" edge="1">
                    <mxGeometry relative="1" as="geometry"/>
                </mxCell>
                <mxCell id="126" value="utils" style="rounded=0;whiteSpace=wrap;html=1;strokeColor=#FFCCE6;" parent="1" vertex="1">
                    <mxGeometry x="375" y="564" width="105" height="30" as="geometry"/>
                </mxCell>
                <mxCell id="129" value="" style="rounded=0;whiteSpace=wrap;html=1;dashed=1;strokeColor=#FF66FF;" parent="1" vertex="1">
                    <mxGeometry x="740.25" y="60" width="246.75" height="430" as="geometry"/>
                </mxCell>
                <mxCell id="130" value="&lt;span&gt;TODO: Config&lt;/span&gt;" style="rounded=0;whiteSpace=wrap;html=1;dashed=1;strokeColor=#FFFFFF;" parent="1" vertex="1">
                    <mxGeometry x="164" y="880" width="376" height="80" as="geometry"/>
                </mxCell>
                <mxCell id="139" style="edgeStyle=orthogonalEdgeStyle;rounded=0;orthogonalLoop=1;jettySize=auto;html=1;entryX=0;entryY=0.5;entryDx=0;entryDy=0;" parent="1" target="95" edge="1">
                    <mxGeometry relative="1" as="geometry">
                        <mxPoint x="206" y="618" as="sourcePoint"/>
                        <mxPoint x="234.90999999999997" y="576.975" as="targetPoint"/>
                        <Array as="points">
                            <mxPoint x="206" y="618"/>
                        </Array>
                    </mxGeometry>
                </mxCell>
                <mxCell id="146" style="edgeStyle=orthogonalEdgeStyle;rounded=0;orthogonalLoop=1;jettySize=auto;html=1;entryX=-0.001;entryY=0.519;entryDx=0;entryDy=0;entryPerimeter=0;" parent="1" edge="1">
                    <mxGeometry relative="1" as="geometry">
                        <mxPoint x="206.0000000000001" y="661.03" as="sourcePoint"/>
                        <mxPoint x="234.90999999999997" y="661.0049999999999" as="targetPoint"/>
                        <Array as="points">
                            <mxPoint x="206" y="661.03"/>
                        </Array>
                    </mxGeometry>
                </mxCell>
                <mxCell id="147" style="edgeStyle=orthogonalEdgeStyle;rounded=0;orthogonalLoop=1;jettySize=auto;html=1;entryX=0;entryY=0.5;entryDx=0;entryDy=0;" parent="1" edge="1">
                    <mxGeometry relative="1" as="geometry">
                        <mxPoint x="206.0000000000001" y="702.03" as="sourcePoint"/>
                        <mxPoint x="235" y="701.53" as="targetPoint"/>
                        <Array as="points">
                            <mxPoint x="206" y="702.03"/>
                        </Array>
                    </mxGeometry>
                </mxCell>
                <mxCell id="148" style="edgeStyle=orthogonalEdgeStyle;rounded=0;orthogonalLoop=1;jettySize=auto;html=1;entryX=-0.001;entryY=0.519;entryDx=0;entryDy=0;entryPerimeter=0;" parent="1" edge="1">
                    <mxGeometry relative="1" as="geometry">
                        <mxPoint x="206.0000000000001" y="741.03" as="sourcePoint"/>
                        <mxPoint x="234.90999999999997" y="741.0049999999999" as="targetPoint"/>
                        <Array as="points">
                            <mxPoint x="206" y="741.03"/>
                        </Array>
                    </mxGeometry>
                </mxCell>
                <mxCell id="149" style="edgeStyle=orthogonalEdgeStyle;rounded=0;orthogonalLoop=1;jettySize=auto;html=1;entryX=0;entryY=0.5;entryDx=0;entryDy=0;" parent="1" edge="1">
                    <mxGeometry relative="1" as="geometry">
                        <mxPoint x="206.0000000000001" y="782.03" as="sourcePoint"/>
                        <mxPoint x="235" y="781.53" as="targetPoint"/>
                        <Array as="points">
                            <mxPoint x="206" y="782.03"/>
                        </Array>
                    </mxGeometry>
                </mxCell>
                <mxCell id="150" style="edgeStyle=orthogonalEdgeStyle;rounded=0;orthogonalLoop=1;jettySize=auto;html=1;entryX=0;entryY=0.5;entryDx=0;entryDy=0;" parent="1" edge="1">
                    <mxGeometry relative="1" as="geometry">
                        <mxPoint x="206.0000000000001" y="821.75" as="sourcePoint"/>
                        <mxPoint x="235" y="821.25" as="targetPoint"/>
                        <Array as="points">
                            <mxPoint x="206" y="821.75"/>
                        </Array>
                    </mxGeometry>
                </mxCell>
                <mxCell id="189" style="edgeStyle=orthogonalEdgeStyle;rounded=0;orthogonalLoop=1;jettySize=auto;html=1;exitX=0.5;exitY=1;exitDx=0;exitDy=0;" parent="1" source="151" edge="1">
                    <mxGeometry relative="1" as="geometry">
                        <mxPoint x="740" y="470" as="targetPoint"/>
                        <Array as="points">
                            <mxPoint x="516" y="506"/>
                            <mxPoint x="703" y="506"/>
                            <mxPoint x="703" y="470"/>
                        </Array>
                    </mxGeometry>
                </mxCell>
                <mxCell id="151" value="Contracts" style="rounded=0;whiteSpace=wrap;html=1;strokeColor=#007FFF;verticalAlign=middle;horizontal=0;" parent="1" vertex="1">
                    <mxGeometry x="501" y="105" width="29" height="344" as="geometry"/>
                </mxCell>
                <mxCell id="153" value="Google&lt;br&gt;Analytics" style="ellipse;shape=cloud;whiteSpace=wrap;html=1;strokeColor=#FFFFFF;" parent="1" vertex="1">
                    <mxGeometry x="20" y="754" width="120" height="80" as="geometry"/>
                </mxCell>
                <mxCell id="154" value="" style="endArrow=classic;html=1;entryX=0.883;entryY=0.501;entryDx=0;entryDy=0;entryPerimeter=0;exitX=0;exitY=0.81;exitDx=0;exitDy=0;exitPerimeter=0;" parent="1" source="85" target="153" edge="1">
                    <mxGeometry width="50" height="50" relative="1" as="geometry">
                        <mxPoint x="170" y="794" as="sourcePoint"/>
                        <mxPoint x="582" y="769" as="targetPoint"/>
                    </mxGeometry>
                </mxCell>
                <mxCell id="155" value="Contract-schema" style="text;html=1;strokeColor=none;fillColor=none;align=center;verticalAlign=middle;whiteSpace=wrap;rounded=0;dashed=1;" parent="1" vertex="1">
                    <mxGeometry x="809.63" y="60" width="108" height="25" as="geometry"/>
                </mxCell>
                <mxCell id="156" value="" style="group" parent="1" vertex="1" connectable="0">
                    <mxGeometry x="763.64" y="100" width="128.13" height="370" as="geometry"/>
                </mxCell>
                <mxCell id="157" value="" style="rounded=0;whiteSpace=wrap;html=1;dashed=1;strokeColor=#00CC00;align=center;" parent="156" vertex="1">
                    <mxGeometry x="-0.01" y="-10" width="120" height="380" as="geometry"/>
                </mxCell>
                <mxCell id="158" value="Contracts" style="text;html=1;strokeColor=none;fillColor=none;align=center;verticalAlign=middle;whiteSpace=wrap;rounded=0;dashed=1;" parent="156" vertex="1">
                    <mxGeometry x="30" y="-10" width="60" height="20" as="geometry"/>
                </mxCell>
                <mxCell id="159" value="colleage" style="rounded=0;whiteSpace=wrap;html=1;strokeColor=#FFFFFF;" parent="156" vertex="1">
                    <mxGeometry x="18.120000000000005" y="70" width="83.75" height="30" as="geometry"/>
                </mxCell>
                <mxCell id="160" value="networks" style="rounded=0;whiteSpace=wrap;html=1;strokeColor=#FFFFFF;" parent="156" vertex="1">
                    <mxGeometry x="18.120000000000005" y="120" width="83.75" height="30" as="geometry"/>
                </mxCell>
                <mxCell id="161" value="contacts" style="rounded=0;whiteSpace=wrap;html=1;strokeColor=#FFFFFF;" parent="156" vertex="1">
                    <mxGeometry x="18.120000000000005" y="170" width="83.75" height="30" as="geometry"/>
                </mxCell>
                <mxCell id="162" value="logging" style="rounded=0;whiteSpace=wrap;html=1;strokeColor=#FFFFFF;" parent="156" vertex="1">
                    <mxGeometry x="18.120000000000005" y="220" width="83.75" height="30" as="geometry"/>
                </mxCell>
                <mxCell id="163" value="surveys" style="rounded=0;whiteSpace=wrap;html=1;strokeColor=#FFFFFF;" parent="156" vertex="1">
                    <mxGeometry x="18.120000000000005" y="270" width="83.75" height="30" as="geometry"/>
                </mxCell>
                <mxCell id="164" value="posts" style="rounded=0;whiteSpace=wrap;html=1;strokeColor=#FFFFFF;" parent="156" vertex="1">
                    <mxGeometry x="18.120000000000005" y="320" width="83.75" height="30" as="geometry"/>
                </mxCell>
                <mxCell id="165" value="auth&amp;amp;identity" style="rounded=0;whiteSpace=wrap;html=1;strokeColor=#FFFFFF;" parent="156" vertex="1">
                    <mxGeometry x="18.120000000000005" y="20" width="83.75" height="30" as="geometry"/>
                </mxCell>
                <mxCell id="173" value="" style="rounded=0;whiteSpace=wrap;html=1;strokeColor=#B266FF;dashed=1;" parent="1" vertex="1">
                    <mxGeometry x="891.77" y="90" width="71.87" height="380" as="geometry"/>
                </mxCell>
                <mxCell id="174" value="" style="edgeStyle=orthogonalEdgeStyle;rounded=0;orthogonalLoop=1;jettySize=auto;html=1;" parent="1" target="175" edge="1">
                    <mxGeometry relative="1" as="geometry">
                        <mxPoint x="865.5200000000001" y="235.0344827586207" as="sourcePoint"/>
                    </mxGeometry>
                </mxCell>
                <mxCell id="175" value="rule" style="whiteSpace=wrap;html=1;rounded=0;strokeColor=#FFFFFF;direction=south;horizontal=0;" parent="1" vertex="1">
                    <mxGeometry x="915.0200000000001" y="215" width="26.25" height="40" as="geometry"/>
                </mxCell>
                <mxCell id="176" value="" style="edgeStyle=orthogonalEdgeStyle;rounded=0;orthogonalLoop=1;jettySize=auto;html=1;" parent="1" target="177" edge="1">
                    <mxGeometry relative="1" as="geometry">
                        <mxPoint x="864.64" y="130.0344827586207" as="sourcePoint"/>
                    </mxGeometry>
                </mxCell>
                <mxCell id="177" value="rule" style="whiteSpace=wrap;html=1;rounded=0;strokeColor=#FFFFFF;direction=south;horizontal=0;" parent="1" vertex="1">
                    <mxGeometry x="914.14" y="110" width="26.25" height="40" as="geometry"/>
                </mxCell>
                <mxCell id="178" value="" style="edgeStyle=orthogonalEdgeStyle;rounded=0;orthogonalLoop=1;jettySize=auto;html=1;" parent="1" target="179" edge="1">
                    <mxGeometry relative="1" as="geometry">
                        <mxPoint x="864.64" y="285.0344827586207" as="sourcePoint"/>
                    </mxGeometry>
                </mxCell>
                <mxCell id="179" value="rule" style="whiteSpace=wrap;html=1;rounded=0;strokeColor=#FFFFFF;direction=south;horizontal=0;" parent="1" vertex="1">
                    <mxGeometry x="914.14" y="265" width="26.25" height="40" as="geometry"/>
                </mxCell>
                <mxCell id="180" value="" style="edgeStyle=orthogonalEdgeStyle;rounded=0;orthogonalLoop=1;jettySize=auto;html=1;" parent="1" target="181" edge="1">
                    <mxGeometry relative="1" as="geometry">
                        <mxPoint x="865.5200000000001" y="440.0344827586207" as="sourcePoint"/>
                    </mxGeometry>
                </mxCell>
                <mxCell id="181" value="rule" style="whiteSpace=wrap;html=1;rounded=0;strokeColor=#FFFFFF;direction=south;horizontal=0;" parent="1" vertex="1">
                    <mxGeometry x="915.0200000000001" y="420" width="26.25" height="40" as="geometry"/>
                </mxCell>
                <mxCell id="182" value="" style="edgeStyle=orthogonalEdgeStyle;rounded=0;orthogonalLoop=1;jettySize=auto;html=1;" parent="1" target="183" edge="1">
                    <mxGeometry relative="1" as="geometry">
                        <mxPoint x="864.64" y="185.0344827586207" as="sourcePoint"/>
                    </mxGeometry>
                </mxCell>
                <mxCell id="183" value="rule" style="whiteSpace=wrap;html=1;rounded=0;strokeColor=#FFFFFF;direction=south;horizontal=0;" parent="1" vertex="1">
                    <mxGeometry x="914.14" y="165" width="26.25" height="40" as="geometry"/>
                </mxCell>
                <mxCell id="184" value="" style="edgeStyle=orthogonalEdgeStyle;rounded=0;orthogonalLoop=1;jettySize=auto;html=1;" parent="1" target="185" edge="1">
                    <mxGeometry relative="1" as="geometry">
                        <mxPoint x="864.64" y="385.0344827586207" as="sourcePoint"/>
                    </mxGeometry>
                </mxCell>
                <mxCell id="185" value="rule" style="whiteSpace=wrap;html=1;rounded=0;strokeColor=#FFFFFF;direction=south;horizontal=0;" parent="1" vertex="1">
                    <mxGeometry x="914.14" y="365" width="26.25" height="40" as="geometry"/>
                </mxCell>
                <mxCell id="186" value="" style="edgeStyle=orthogonalEdgeStyle;rounded=0;orthogonalLoop=1;jettySize=auto;html=1;" parent="1" target="187" edge="1">
                    <mxGeometry relative="1" as="geometry">
                        <mxPoint x="865.5100000000003" y="335.0344827586207" as="sourcePoint"/>
                    </mxGeometry>
                </mxCell>
                <mxCell id="187" value="rule" style="whiteSpace=wrap;html=1;rounded=0;strokeColor=#FFFFFF;direction=south;horizontal=0;" parent="1" vertex="1">
                    <mxGeometry x="915.0099999999999" y="315" width="26.25" height="40" as="geometry"/>
                </mxCell>
                <mxCell id="188" value="Rules" style="text;html=1;strokeColor=none;fillColor=none;align=center;verticalAlign=middle;whiteSpace=wrap;rounded=0;dashed=1;" parent="1" vertex="1">
                    <mxGeometry x="892.27" y="90" width="70" height="20" as="geometry"/>
                </mxCell>
                <mxCell id="190" value="" style="rounded=0;whiteSpace=wrap;html=1;dashed=1;strokeColor=#00FFFF;" parent="1" vertex="1">
                    <mxGeometry x="610" y="531" width="377" height="429" as="geometry"/>
                </mxCell>
                <mxCell id="191" value="" style="rounded=0;whiteSpace=wrap;html=1;strokeColor=#B266FF;dashed=1;" parent="1" vertex="1">
                    <mxGeometry x="854.13" y="561" width="71.87" height="380" as="geometry"/>
                </mxCell>
                <mxCell id="192" value="Mock-Server" style="text;html=1;strokeColor=none;fillColor=none;align=center;verticalAlign=middle;whiteSpace=wrap;rounded=0;dashed=1;" parent="1" vertex="1">
                    <mxGeometry x="732.5" y="531" width="132" height="25" as="geometry"/>
                </mxCell>
                <mxCell id="193" value="" style="edgeStyle=orthogonalEdgeStyle;rounded=0;orthogonalLoop=1;jettySize=auto;html=1;entryX=0.5;entryY=1;entryDx=0;entryDy=0;" parent="1" target="206" edge="1">
                    <mxGeometry relative="1" as="geometry">
                        <Array as="points">
                            <mxPoint x="652" y="748"/>
                        </Array>
                        <mxPoint x="652" y="748.52" as="sourcePoint"/>
                    </mxGeometry>
                </mxCell>
                <mxCell id="194" value="Router" style="rounded=0;whiteSpace=wrap;html=1;strokeColor=#FFFFFF;horizontal=0;" parent="1" vertex="1">
                    <mxGeometry x="622" y="566" width="30" height="365" as="geometry"/>
                </mxCell>
                <mxCell id="195" value="" style="group" parent="1" vertex="1" connectable="0">
                    <mxGeometry x="726" y="571" width="128.13" height="370" as="geometry"/>
                </mxCell>
                <mxCell id="196" value="" style="rounded=0;whiteSpace=wrap;html=1;dashed=1;strokeColor=#00CC00;align=center;" parent="195" vertex="1">
                    <mxGeometry x="-0.01" y="-10" width="120" height="380" as="geometry"/>
                </mxCell>
                <mxCell id="197" value="services" style="text;html=1;strokeColor=none;fillColor=none;align=center;verticalAlign=middle;whiteSpace=wrap;rounded=0;dashed=1;" parent="195" vertex="1">
                    <mxGeometry x="30" y="-10" width="60" height="20" as="geometry"/>
                </mxCell>
                <mxCell id="198" value="colleage" style="rounded=0;whiteSpace=wrap;html=1;strokeColor=#FFFFFF;" parent="195" vertex="1">
                    <mxGeometry x="18.120000000000005" y="70" width="83.75" height="30" as="geometry"/>
                </mxCell>
                <mxCell id="199" value="networks" style="rounded=0;whiteSpace=wrap;html=1;strokeColor=#FFFFFF;" parent="195" vertex="1">
                    <mxGeometry x="18.120000000000005" y="120" width="83.75" height="30" as="geometry"/>
                </mxCell>
                <mxCell id="200" value="contacts" style="rounded=0;whiteSpace=wrap;html=1;strokeColor=#FFFFFF;" parent="195" vertex="1">
                    <mxGeometry x="18.120000000000005" y="170" width="83.75" height="30" as="geometry"/>
                </mxCell>
                <mxCell id="201" value="logging" style="rounded=0;whiteSpace=wrap;html=1;strokeColor=#FFFFFF;" parent="195" vertex="1">
                    <mxGeometry x="18.120000000000005" y="220" width="83.75" height="30" as="geometry"/>
                </mxCell>
                <mxCell id="202" value="surveys" style="rounded=0;whiteSpace=wrap;html=1;strokeColor=#FFFFFF;" parent="195" vertex="1">
                    <mxGeometry x="18.120000000000005" y="270" width="83.75" height="30" as="geometry"/>
                </mxCell>
                <mxCell id="203" value="posts" style="rounded=0;whiteSpace=wrap;html=1;strokeColor=#FFFFFF;" parent="195" vertex="1">
                    <mxGeometry x="18.120000000000005" y="320" width="83.75" height="30" as="geometry"/>
                </mxCell>
                <mxCell id="204" value="auth&amp;amp;identity" style="rounded=0;whiteSpace=wrap;html=1;strokeColor=#FFFFFF;" parent="195" vertex="1">
                    <mxGeometry x="18.120000000000005" y="20" width="83.75" height="30" as="geometry"/>
                </mxCell>
                <mxCell id="205" style="edgeStyle=orthogonalEdgeStyle;rounded=0;orthogonalLoop=1;jettySize=auto;html=1;entryX=0.002;entryY=0.091;entryDx=0;entryDy=0;entryPerimeter=0;" parent="1" source="206" edge="1">
                    <mxGeometry relative="1" as="geometry">
                        <Array as="points">
                            <mxPoint x="716" y="748"/>
                            <mxPoint x="726" y="748"/>
                        </Array>
                        <mxPoint x="726.23" y="747.5799999999999" as="targetPoint"/>
                    </mxGeometry>
                </mxCell>
                <mxCell id="206" value="/api" style="whiteSpace=wrap;html=1;rounded=0;strokeColor=#FFFFFF;direction=south;horizontal=0;" parent="1" vertex="1">
                    <mxGeometry x="675" y="724" width="24.25" height="49" as="geometry"/>
                </mxCell>
                <mxCell id="207" value="" style="edgeStyle=orthogonalEdgeStyle;rounded=0;orthogonalLoop=1;jettySize=auto;html=1;" parent="1" target="208" edge="1">
                    <mxGeometry relative="1" as="geometry">
                        <mxPoint x="827.8800000000001" y="706.0344827586207" as="sourcePoint"/>
                    </mxGeometry>
                </mxCell>
                <mxCell id="208" value="gen." style="whiteSpace=wrap;html=1;rounded=0;strokeColor=#FFFFFF;direction=south;horizontal=0;" parent="1" vertex="1">
                    <mxGeometry x="877.38" y="686" width="26.25" height="40" as="geometry"/>
                </mxCell>
                <mxCell id="209" value="" style="edgeStyle=orthogonalEdgeStyle;rounded=0;orthogonalLoop=1;jettySize=auto;html=1;" parent="1" target="210" edge="1">
                    <mxGeometry relative="1" as="geometry">
                        <mxPoint x="827" y="601.0344827586207" as="sourcePoint"/>
                    </mxGeometry>
                </mxCell>
                <mxCell id="210" value="gen." style="whiteSpace=wrap;html=1;rounded=0;strokeColor=#FFFFFF;direction=south;horizontal=0;" parent="1" vertex="1">
                    <mxGeometry x="876.5" y="581" width="26.25" height="40" as="geometry"/>
                </mxCell>
                <mxCell id="211" value="" style="edgeStyle=orthogonalEdgeStyle;rounded=0;orthogonalLoop=1;jettySize=auto;html=1;" parent="1" target="212" edge="1">
                    <mxGeometry relative="1" as="geometry">
                        <mxPoint x="827" y="756.0344827586207" as="sourcePoint"/>
                    </mxGeometry>
                </mxCell>
                <mxCell id="212" value="gen." style="whiteSpace=wrap;html=1;rounded=0;strokeColor=#FFFFFF;direction=south;horizontal=0;" parent="1" vertex="1">
                    <mxGeometry x="876.5" y="736" width="26.25" height="40" as="geometry"/>
                </mxCell>
                <mxCell id="213" value="" style="edgeStyle=orthogonalEdgeStyle;rounded=0;orthogonalLoop=1;jettySize=auto;html=1;" parent="1" target="214" edge="1">
                    <mxGeometry relative="1" as="geometry">
                        <mxPoint x="827.8800000000001" y="911.0344827586207" as="sourcePoint"/>
                    </mxGeometry>
                </mxCell>
                <mxCell id="214" value="gen." style="whiteSpace=wrap;html=1;rounded=0;strokeColor=#FFFFFF;direction=south;horizontal=0;" parent="1" vertex="1">
                    <mxGeometry x="877.38" y="891" width="26.25" height="40" as="geometry"/>
                </mxCell>
                <mxCell id="215" value="" style="edgeStyle=orthogonalEdgeStyle;rounded=0;orthogonalLoop=1;jettySize=auto;html=1;" parent="1" target="216" edge="1">
                    <mxGeometry relative="1" as="geometry">
                        <mxPoint x="827" y="656.0344827586207" as="sourcePoint"/>
                    </mxGeometry>
                </mxCell>
                <mxCell id="216" value="gen." style="whiteSpace=wrap;html=1;rounded=0;strokeColor=#FFFFFF;direction=south;horizontal=0;" parent="1" vertex="1">
                    <mxGeometry x="876.5" y="636" width="26.25" height="40" as="geometry"/>
                </mxCell>
                <mxCell id="217" value="" style="edgeStyle=orthogonalEdgeStyle;rounded=0;orthogonalLoop=1;jettySize=auto;html=1;" parent="1" target="218" edge="1">
                    <mxGeometry relative="1" as="geometry">
                        <mxPoint x="827" y="856.0344827586207" as="sourcePoint"/>
                    </mxGeometry>
                </mxCell>
                <mxCell id="234" style="edgeStyle=orthogonalEdgeStyle;rounded=0;orthogonalLoop=1;jettySize=auto;html=1;entryX=-0.018;entryY=0.805;entryDx=0;entryDy=0;entryPerimeter=0;" parent="1" source="218" target="224" edge="1">
                    <mxGeometry relative="1" as="geometry">
                        <Array as="points">
                            <mxPoint x="923.25" y="856"/>
                        </Array>
                    </mxGeometry>
                </mxCell>
                <mxCell id="218" value="gen." style="whiteSpace=wrap;html=1;rounded=0;strokeColor=#FFFFFF;direction=south;horizontal=0;" parent="1" vertex="1">
                    <mxGeometry x="876.5" y="836" width="26.25" height="40" as="geometry"/>
                </mxCell>
                <mxCell id="219" value="" style="edgeStyle=orthogonalEdgeStyle;rounded=0;orthogonalLoop=1;jettySize=auto;html=1;" parent="1" target="220" edge="1">
                    <mxGeometry relative="1" as="geometry">
                        <mxPoint x="827.8700000000003" y="806.0344827586207" as="sourcePoint"/>
                    </mxGeometry>
                </mxCell>
                <mxCell id="220" value="gen." style="whiteSpace=wrap;html=1;rounded=0;strokeColor=#FFFFFF;direction=south;horizontal=0;" parent="1" vertex="1">
                    <mxGeometry x="877.37" y="786" width="26.25" height="40" as="geometry"/>
                </mxCell>
                <mxCell id="221" value="generators" style="text;html=1;strokeColor=none;fillColor=none;align=center;verticalAlign=middle;whiteSpace=wrap;rounded=0;dashed=1;" parent="1" vertex="1">
                    <mxGeometry x="854.62" y="561" width="70" height="20" as="geometry"/>
                </mxCell>
                <mxCell id="226" style="edgeStyle=orthogonalEdgeStyle;rounded=0;orthogonalLoop=1;jettySize=auto;html=1;entryX=0.873;entryY=1;entryDx=0;entryDy=0;entryPerimeter=0;" parent="1" source="224" target="129" edge="1">
                    <mxGeometry relative="1" as="geometry"/>
                </mxCell>
                <mxCell id="224" value="Contracts" style="rounded=0;whiteSpace=wrap;html=1;strokeColor=#007FFF;verticalAlign=middle;horizontal=0;" parent="1" vertex="1">
                    <mxGeometry x="941.27" y="579" width="29" height="344" as="geometry"/>
                </mxCell>
                <mxCell id="227" value="" style="edgeStyle=orthogonalEdgeStyle;rounded=0;orthogonalLoop=1;jettySize=auto;html=1;entryX=-0.007;entryY=0.224;entryDx=0;entryDy=0;entryPerimeter=0;" parent="1" target="224" edge="1">
                    <mxGeometry relative="1" as="geometry">
                        <mxPoint x="902.08" y="655.8344827586207" as="sourcePoint"/>
                        <mxPoint x="940.25" y="656" as="targetPoint"/>
                    </mxGeometry>
                </mxCell>
                <mxCell id="228" value="" style="edgeStyle=orthogonalEdgeStyle;rounded=0;orthogonalLoop=1;jettySize=auto;html=1;entryX=0;entryY=0.064;entryDx=0;entryDy=0;entryPerimeter=0;" parent="1" target="224" edge="1">
                    <mxGeometry relative="1" as="geometry">
                        <mxPoint x="902.08" y="600.8344827586208" as="sourcePoint"/>
                        <mxPoint x="940.25" y="601" as="targetPoint"/>
                    </mxGeometry>
                </mxCell>
                <mxCell id="229" value="" style="edgeStyle=orthogonalEdgeStyle;rounded=0;orthogonalLoop=1;jettySize=auto;html=1;entryX=-0.003;entryY=0.369;entryDx=0;entryDy=0;entryPerimeter=0;" parent="1" target="224" edge="1">
                    <mxGeometry relative="1" as="geometry">
                        <mxPoint x="902.9600000000002" y="705.8344827586207" as="sourcePoint"/>
                        <mxPoint x="940.25" y="706" as="targetPoint"/>
                    </mxGeometry>
                </mxCell>
                <mxCell id="230" value="" style="edgeStyle=orthogonalEdgeStyle;rounded=0;orthogonalLoop=1;jettySize=auto;html=1;entryX=-0.001;entryY=0.514;entryDx=0;entryDy=0;entryPerimeter=0;" parent="1" target="224" edge="1">
                    <mxGeometry relative="1" as="geometry">
                        <mxPoint x="902.08" y="755.8344827586207" as="sourcePoint"/>
                        <mxPoint x="940.25" y="756" as="targetPoint"/>
                    </mxGeometry>
                </mxCell>
                <mxCell id="231" value="" style="edgeStyle=orthogonalEdgeStyle;rounded=0;orthogonalLoop=1;jettySize=auto;html=1;entryX=-0.001;entryY=0.66;entryDx=0;entryDy=0;entryPerimeter=0;" parent="1" target="224" edge="1">
                    <mxGeometry relative="1" as="geometry">
                        <mxPoint x="903.25" y="806" as="sourcePoint"/>
                        <mxPoint x="940.25" y="806" as="targetPoint"/>
                    </mxGeometry>
                </mxCell>
                <mxCell id="233" value="" style="edgeStyle=orthogonalEdgeStyle;rounded=0;orthogonalLoop=1;jettySize=auto;html=1;entryX=-0.004;entryY=0.965;entryDx=0;entryDy=0;entryPerimeter=0;" parent="1" target="224" edge="1">
                    <mxGeometry relative="1" as="geometry">
                        <mxPoint x="902.9600000000002" y="910.8344827586207" as="sourcePoint"/>
                        <mxPoint x="940.25" y="911" as="targetPoint"/>
                    </mxGeometry>
                </mxCell>
                <mxCell id="236" style="edgeStyle=orthogonalEdgeStyle;orthogonalLoop=1;jettySize=auto;html=1;rounded=0;arcSize=20;metaEdit=0;targetPerimeterSpacing=6;startArrow=classic;startFill=1;" parent="1" source="118" edge="1">
                    <mxGeometry relative="1" as="geometry">
                        <mxPoint x="622" y="723" as="targetPoint"/>
                        <Array as="points">
                            <mxPoint x="566" y="723"/>
                            <mxPoint x="622" y="723"/>
                        </Array>
                    </mxGeometry>
                </mxCell>
                <mxCell id="237" value="&amp;nbsp;Dev/Test&amp;nbsp;" style="edgeLabel;html=1;align=center;verticalAlign=middle;resizable=0;points=[];" parent="236" vertex="1" connectable="0">
                    <mxGeometry x="-0.0503" relative="1" as="geometry">
                        <mxPoint x="11.67" y="0.04" as="offset"/>
                    </mxGeometry>
                </mxCell>
            </root>
        </mxGraphModel>
    </diagram>
</mxfile>